<?xml version="1.0" encoding="UTF-8" standalone="no"?>
<!DOCTYPE svg PUBLIC "-//W3C//DTD SVG 1.1//EN" "http://www.w3.org/Graphics/SVG/1.1/DTD/svg11.dtd">
<!-- Создано Microsoft Visio, экспорт SVG huawei-router.svg Страница-1 -->
<svg xmlns="http://www.w3.org/2000/svg" xmlns:xlink="http://www.w3.org/1999/xlink" xmlns:ev="http://www.w3.org/2001/xml-events"
		xmlns:v="http://schemas.microsoft.com/visio/2003/SVGExtensions/" width="0.677729in" height="0.530438in"
		viewBox="0 0 48.7965 38.1915" xml:space="preserve" color-interpolation-filters="sRGB" class="st6">
	<title>Huawei Security Router&#38;Carrier Ethernet - Blue</title>
	<v:documentProperties v:langID="1033" v:metric="true" v:viewMarkup="false">
		<v:userDefs>
			<v:ud v:nameU="msvConvertTheme"/>
		</v:userDefs>
	</v:documentProperties>

	<style type="text/css">
	<![CDATA[
		.st1 {fill:#0b3c68;stroke:none;stroke-linecap:butt;stroke-width:0.75}
		.st2 {fill:#5d7695;stroke:none;stroke-linecap:butt;stroke-width:0.75}
		.st3 {fill:#8ba6bd;stroke:none;stroke-linecap:butt;stroke-width:0.75}
		.st4 {fill:#2b4f7c;stroke:none;stroke-linecap:butt;stroke-width:0.75}
		.st5 {fill:#ffffff;stroke:none;stroke-linecap:butt;stroke-width:0.75}
		.st6 {fill:none;fill-rule:evenodd;font-size:12px;overflow:visible;stroke-linecap:square;stroke-miterlimit:3}
	]]>
	</style>

	<g v:mID="0" v:index="1" v:groupContext="foregroundPage">
		<title>Страница-1</title>
		<v:pageProperties v:drawingScale="1" v:pageScale="1" v:drawingUnits="19" v:shadowOffsetX="9" v:shadowOffsetY="-9"/>
		<g id="group5-1" transform="translate(0.75,-0.75)" v:mID="5" v:groupContext="group">
			<title>Лист.5</title>
			<g id="shape6-2" v:mID="6" v:groupContext="shape">
				<title>Лист.6</title>
				<path d="M0 16.4 L0 23.44 L0 23.44 C0.01 31.59 10.6 38.19 23.65 38.19 C36.7 38.19 47.28 31.59 47.3 23.44 L47.3 16.4
							 L0 16.4 Z" class="st1"/>
			</g>
			<g id="shape7-4" v:mID="7" v:groupContext="shape" transform="translate(0,-7.01325)">
				<title>Лист.7</title>
				<ellipse cx="23.6482" cy="23.4255" rx="23.6482" ry="14.766" class="st2"/>
			</g>
			<g id="shape8-6" v:mID="8" v:groupContext="shape" transform="translate(0.192,-6.867)">
				<title>Лист.8</title>
				<path d="M0 23.28 C0 31.5 10.52 38.19 23.46 38.19 C36.39 38.19 46.91 31.5 46.91 23.28 C46.91 15.06 36.39 8.37 23.46
							 8.37 C10.52 8.37 0 15.06 0 23.28 ZM1.41 23.28 C1.41 15.84 11.3 9.78 23.46 9.78 C35.61 9.78 45.5 15.84
							 45.5 23.28 C45.5 30.72 35.61 36.78 23.46 36.78 C11.3 36.78 1.41 30.72 1.41 23.28 Z" class="st3"/>
			</g>
			<g id="shape9-8" v:mID="9" v:groupContext="shape" transform="translate(1.6395,-16.806)">
				<title>Лист.9</title>
				<path d="M0.29 33.8 C0.29 26.35 10.18 20.3 22.33 20.3 C31.9 20.3 40.07 24.05 43.11 29.28 C40.32 23.75 31.93 19.73
							 22.04 19.73 C9.89 19.73 0 25.81 0 33.29 C0 35.02 0.53 36.67 1.49 38.19 C0.72 36.81 0.29 35.34 0.29 33.8
							 Z" class="st4"/>
			</g>
			<g id="shape10-10" v:mID="10" v:groupContext="shape" transform="translate(8.4225,-12.21)">
				<title>Лист.10</title>
				<path d="M24.72 31.83 C24.6 32.11 23.11 35.43 23.11 35.43 L20.46 32.62 C20.31 32.45 20.19 32.3 20.29 32.09 L20.32
							 32.04 C20.46 31.8 20.78 31.62 21.22 31.39 C21.22 31.39 24.44 29.72 24.79 29.54 C24.65 29.39 23.62 28.29
							 23.51 28.18 C22.73 28.58 17.93 31.07 17.93 31.07 C17.61 31.24 17.34 31.49 17.18 31.75 L17.1 31.89 C16.95
							 32.23 17 32.56 17.26 32.84 L20.51 36.3 L20.73 36.53 C20.73 36.53 16.24 36.43 15.88 36.43 C15.78 36.65
							 15.24 37.85 15.18 37.99 C15.41 38 23.82 38.18 24.19 38.19 C24.31 37.91 26.94 32.07 27.02 31.89 C26.81
							 31.88 24.99 31.84 24.72 31.83 ZM21.76 27.39 L28.23 24.03 C28.23 24.03 26.84 27.11 26.76 27.3 C26.97
							 27.3 28.74 27.34 29.06 27.35 C29.18 27.07 31.81 21.23 31.89 21.04 C31.68 21.04 23.25 20.85 22.88 20.84
							 C22.78 21.07 22.47 21.76 22.47 21.76 C22.47 21.76 22.24 22.26 22.18 22.41 C22.42 22.41 27.22 22.52 27.22
							 22.52 L22.09 25.19 C21.11 25.7 20.85 25.5 20.48 25.1 C20.48 25.1 18.67 23.17 18.55 23.04 C18.29 23.17
							 16.51 24.1 16.26 24.23 C16.65 24.65 19.15 27.32 19.15 27.32 C19.58 27.78 20.7 27.94 21.76 27.39 ZM8.78
							 23.27 L11.42 26.08 C11.58 26.25 11.7 26.4 11.6 26.6 L11.57 26.66 C11.43 26.9 11.11 27.08 10.67 27.31
							 C10.67 27.31 7.45 28.98 7.1 29.16 C7.22 29.29 8.27 30.41 8.38 30.52 C9.15 30.12 13.95 27.63 13.95 27.63
							 C14.27 27.46 14.55 27.21 14.71 26.95 L14.78 26.81 C14.94 26.47 14.88 26.14 14.63 25.86 L11.16 22.17
							 C11.16 22.17 15.65 22.27 16.01 22.27 C16.11 22.05 16.64 20.86 16.71 20.71 C16.47 20.7 8.07 20.52 7.7
							 20.51 C7.57 20.79 6.05 24.19 6.05 24.19 C6.05 24.19 4.95 26.63 4.87 26.81 C5.08 26.82 6.85 26.86 7.16
							 26.87 C7.29 26.59 8.78 23.27 8.78 23.27 ZM10.13 31.31 L3.66 34.67 C3.66 34.67 5.05 31.58 5.13 31.4 C4.92
							 31.39 3.15 31.35 2.83 31.35 C2.71 31.63 1.18 35.03 1.18 35.03 C1.18 35.03 0.08 37.47 0 37.66 C0.22 37.66
							 8.64 37.85 9.01 37.85 C9.11 37.63 9.65 36.44 9.71 36.29 C9.47 36.28 4.66 36.18 4.66 36.18 L9.8 33.51
							 C10.78 33 11.03 33.2 11.4 33.59 C11.4 33.59 13.22 35.53 13.34 35.66 C13.56 35.55 15.33 34.63 15.63 34.47
							 C15.24 34.05 12.73 31.38 12.73 31.38 C12.3 30.92 11.19 30.76 10.13 31.31 Z" class="st1"/>
			</g>
			<g id="shape11-12" v:mID="11" v:groupContext="shape" transform="translate(7.57275,-13.0605)">
				<title>Лист.11</title>
				<path d="M24.72 31.83 C24.6 32.11 23.11 35.43 23.11 35.43 L20.46 32.62 C20.31 32.45 20.19 32.3 20.29 32.09 L20.32
							 32.04 C20.46 31.8 20.78 31.62 21.22 31.39 C21.22 31.39 24.44 29.72 24.79 29.54 C24.65 29.39 23.62 28.29
							 23.51 28.18 C22.73 28.58 17.93 31.07 17.93 31.07 C17.61 31.24 17.34 31.49 17.18 31.75 L17.1 31.89 C16.95
							 32.23 17 32.56 17.26 32.84 L20.51 36.3 L20.73 36.53 C20.73 36.53 16.24 36.43 15.88 36.43 C15.78 36.65
							 15.24 37.85 15.18 37.99 C15.41 38 23.82 38.18 24.19 38.19 C24.31 37.91 26.94 32.07 27.02 31.89 C26.81
							 31.88 24.99 31.84 24.72 31.83 ZM21.76 27.39 L28.23 24.03 C28.23 24.03 26.84 27.11 26.76 27.3 C26.97
							 27.3 28.74 27.34 29.06 27.35 C29.18 27.07 31.81 21.23 31.89 21.04 C31.68 21.04 23.25 20.85 22.88 20.84
							 C22.78 21.07 22.47 21.76 22.47 21.76 C22.47 21.76 22.24 22.26 22.18 22.41 C22.42 22.41 27.22 22.52 27.22
							 22.52 L22.09 25.19 C21.11 25.7 20.85 25.5 20.48 25.1 C20.48 25.1 18.67 23.17 18.55 23.04 C18.29 23.17
							 16.51 24.1 16.26 24.23 C16.65 24.65 19.15 27.32 19.15 27.32 C19.58 27.78 20.7 27.94 21.76 27.39 ZM8.78
							 23.27 L11.42 26.08 C11.58 26.25 11.7 26.4 11.6 26.6 L11.57 26.66 C11.43 26.9 11.11 27.08 10.67 27.31
							 C10.67 27.31 7.45 28.98 7.1 29.16 C7.22 29.29 8.27 30.41 8.38 30.52 C9.15 30.12 13.95 27.63 13.95 27.63
							 C14.27 27.46 14.55 27.21 14.71 26.95 L14.78 26.81 C14.94 26.47 14.88 26.14 14.63 25.86 L11.16 22.17
							 C11.16 22.17 15.65 22.27 16.01 22.27 C16.11 22.05 16.64 20.86 16.71 20.71 C16.47 20.7 8.07 20.52 7.7
							 20.51 C7.57 20.79 6.05 24.19 6.05 24.19 C6.05 24.19 4.95 26.63 4.87 26.81 C5.08 26.82 6.85 26.86 7.16
							 26.87 C7.29 26.59 8.78 23.27 8.78 23.27 ZM10.13 31.31 L3.66 34.67 C3.66 34.67 5.05 31.58 5.13 31.4 C4.92
							 31.39 3.15 31.35 2.83 31.35 C2.71 31.63 1.18 35.03 1.18 35.03 C1.18 35.03 0.08 37.47 0 37.66 C0.22 37.66
							 8.64 37.85 9.01 37.85 C9.11 37.63 9.65 36.44 9.71 36.29 C9.47 36.28 4.66 36.18 4.66 36.18 L9.8 33.51
							 C10.78 33 11.03 33.2 11.4 33.59 C11.4 33.59 13.22 35.53 13.34 35.66 C13.56 35.55 15.33 34.63 15.63 34.47
							 C15.24 34.05 12.73 31.38 12.73 31.38 C12.3 30.92 11.19 30.76 10.13 31.31 Z" class="st5"/>
			</g>
		</g>
	</g>
</svg>
