<?xml version="1.0" encoding="UTF-8" standalone="no"?>
<!DOCTYPE svg PUBLIC "-//W3C//DTD SVG 1.1//EN" "http://www.w3.org/Graphics/SVG/1.1/DTD/svg11.dtd">
<!-- Создано Microsoft Visio, экспорт SVG huawei-ne5000e.svg Страница-1 -->
<svg xmlns="http://www.w3.org/2000/svg" xmlns:xlink="http://www.w3.org/1999/xlink" xmlns:ev="http://www.w3.org/2001/xml-events"
		xmlns:v="http://schemas.microsoft.com/visio/2003/SVGExtensions/" width="0.524182in" height="0.789094in"
		viewBox="0 0 37.7411 56.8147" xml:space="preserve" color-interpolation-filters="sRGB" class="st6">
	<title>Huawei Security Router&#38;Carrier Ethernet - Blue</title>
	<v:documentProperties v:langID="1033" v:metric="true" v:viewMarkup="false">
		<v:userDefs>
			<v:ud v:nameU="msvConvertTheme"/>
		</v:userDefs>
	</v:documentProperties>

	<style type="text/css">
	<![CDATA[
		.st1 {fill:#0b3c68;stroke:none;stroke-linecap:butt;stroke-width:0.75}
		.st2 {fill:#5d7695;stroke:none;stroke-linecap:butt;stroke-width:0.75}
		.st3 {fill:#8ba6bd;stroke:none;stroke-linecap:butt;stroke-width:0.75}
		.st4 {fill:#2b4f7c;stroke:none;stroke-linecap:butt;stroke-width:0.75}
		.st5 {fill:#ffffff;stroke:none;stroke-linecap:butt;stroke-width:0.75}
		.st6 {fill:none;fill-rule:evenodd;font-size:12px;overflow:visible;stroke-linecap:square;stroke-miterlimit:3}
	]]>
	</style>

	<g v:mID="0" v:index="1" v:groupContext="foregroundPage">
		<title>Страница-1</title>
		<v:pageProperties v:drawingScale="1" v:pageScale="1" v:drawingUnits="19" v:shadowOffsetX="9" v:shadowOffsetY="-9"/>
		<g id="group5-1" transform="translate(0.75,-0.75)" v:mID="5" v:groupContext="group">
			<title>Лист.5</title>
			<g id="shape6-2" v:mID="6" v:groupContext="shape">
				<title>Лист.6</title>
				<path d="M0 40.12 L0 45.51 L0 45.51 C0.01 51.75 8.12 56.81 18.12 56.81 C28.12 56.81 36.23 51.75 36.24 45.51 L36.24
							 45.51 L36.24 40.12 L0 40.12 Z" class="st1"/>
			</g>
			<g id="shape7-4" v:mID="7" v:groupContext="shape" transform="translate(0,-5.37384)">
				<title>Лист.7</title>
				<path d="M36.24 45.5 C36.24 51.75 28.13 56.81 18.12 56.81 C8.11 56.81 0 51.75 0 45.5 C0 39.25 8.11 34.19 18.12 34.19
							 C28.13 34.19 36.24 39.25 36.24 45.5 Z" class="st2"/>
			</g>
			<g id="shape8-6" v:mID="8" v:groupContext="shape" transform="translate(0.147118,-5.26178)">
				<title>Лист.8</title>
				<path d="M0 45.39 C-0 51.69 8.06 56.81 17.97 56.81 C27.88 56.81 35.95 51.69 35.95 45.39 C35.95 39.09 27.88 33.96
							 17.97 33.96 C8.06 33.96 0 39.09 0 45.39 ZM1.08 45.39 C1.08 39.69 8.66 35.05 17.97 35.05 C27.29 35.05
							 34.86 39.69 34.86 45.39 C34.86 51.09 27.29 55.73 17.97 55.73 C8.66 55.73 1.08 51.09 1.08 45.39 Z"
						class="st3"/>
			</g>
			<g id="shape9-8" v:mID="9" v:groupContext="shape" transform="translate(1.25683,-12.878)">
				<title>Лист.9</title>
				<path d="M0.22 53.45 C0.22 47.75 7.8 43.11 17.11 43.11 C24.45 43.11 30.7 45.98 33.03 49.99 C30.9 45.75 24.47 42.67
							 16.89 42.67 C7.58 42.67 0 47.33 0 53.06 C0 54.38 0.41 55.65 1.15 56.81 C0.55 55.76 0.22 54.63 0.22 53.45
							 Z" class="st4"/>
			</g>
			<g id="shape10-10" v:mID="10" v:groupContext="shape" transform="translate(0,-7.29327)">
				<title>Лист.10</title>
				<path d="M0 27.48 L0 45.51 L0 45.51 C0.01 51.76 8.12 56.81 18.12 56.81 C28.12 56.81 36.23 51.76 36.24 45.51 L36.24
							 45.51 L36.24 27.48 L0 27.48 Z" class="st1"/>
			</g>
			<g id="shape11-12" v:mID="11" v:groupContext="shape" transform="translate(0,-25.3089)">
				<title>Лист.11</title>
				<path d="M36.24 45.5 C36.24 51.75 28.13 56.81 18.12 56.81 C8.11 56.81 0 51.75 0 45.5 C0 39.25 8.11 34.19 18.12 34.19
							 C28.13 34.19 36.24 39.25 36.24 45.5 Z" class="st2"/>
			</g>
			<g id="shape12-14" v:mID="12" v:groupContext="shape" transform="translate(0.147118,-25.198)">
				<title>Лист.12</title>
				<path d="M0 45.39 C-0 51.69 8.06 56.81 17.97 56.81 C27.88 56.81 35.95 51.69 35.95 45.39 C35.95 39.09 27.88 33.96
							 17.97 33.96 C8.06 33.96 0 39.09 0 45.39 ZM1.08 45.39 C1.08 39.69 8.66 35.05 17.97 35.05 C27.29 35.05
							 34.86 39.69 34.86 45.39 C34.86 51.09 27.29 55.73 17.97 55.73 C8.66 55.73 1.08 51.09 1.08 45.39 Z"
						class="st3"/>
			</g>
			<g id="shape13-16" v:mID="13" v:groupContext="shape" transform="translate(2.62227,-36.5227)">
				<title>Лист.13</title>
				<path d="M18.94 51.94 C18.85 52.16 17.7 54.7 17.7 54.7 L15.68 52.54 C15.56 52.41 15.47 52.3 15.54 52.14 L15.57 52.1
							 C15.68 51.92 15.92 51.78 16.26 51.61 C16.26 51.61 18.73 50.32 18.99 50.18 C18.89 50.07 18.1 49.23 18.02
							 49.14 C17.42 49.45 13.74 51.36 13.74 51.36 C13.5 51.49 13.28 51.68 13.16 51.88 L13.11 51.98 C12.99 52.25
							 13.03 52.5 13.23 52.71 L15.71 55.36 L15.88 55.54 C15.88 55.54 12.45 55.47 12.17 55.46 C12.09 55.63 11.68
							 56.55 11.63 56.66 C11.81 56.67 18.25 56.81 18.53 56.81 C18.63 56.6 20.64 52.12 20.7 51.98 C20.54 51.98
							 19.15 51.95 18.94 51.94 ZM16.67 48.54 L21.63 45.96 C21.63 45.96 20.57 48.33 20.5 48.47 C20.67 48.47
							 22.02 48.5 22.26 48.51 C22.36 48.29 24.37 43.82 24.44 43.68 C24.27 43.67 17.82 43.53 17.53 43.52 C17.45
							 43.7 17.22 44.22 17.22 44.22 C17.22 44.22 17.04 44.61 16.99 44.72 C17.18 44.73 20.86 44.81 20.86 44.81
							 L16.92 46.85 C16.18 47.24 15.98 47.09 15.7 46.79 C15.7 46.79 14.31 45.31 14.21 45.21 C14.02 45.31 12.65
							 46.02 12.46 46.12 C12.76 46.44 14.68 48.49 14.68 48.49 C15.01 48.84 15.86 48.96 16.67 48.54 ZM6.73 45.38
							 L8.75 47.54 C8.88 47.67 8.96 47.78 8.89 47.94 L8.87 47.98 C8.76 48.17 8.51 48.3 8.18 48.48 C8.18 48.48
							 5.7 49.76 5.44 49.9 C5.53 50 6.33 50.85 6.42 50.94 C7.01 50.63 10.69 48.72 10.69 48.72 C10.94 48.59
							 11.15 48.4 11.27 48.2 L11.33 48.1 C11.45 47.84 11.4 47.58 11.21 47.37 L8.55 44.54 C8.55 44.54 11.99
							 44.61 12.27 44.62 C12.34 44.45 12.75 43.53 12.8 43.42 C12.62 43.41 6.18 43.27 5.9 43.27 C5.8 43.48 4.64
							 46.09 4.64 46.09 C4.64 46.09 3.79 47.96 3.73 48.1 C3.89 48.1 5.25 48.13 5.49 48.14 C5.59 47.92 6.73
							 45.38 6.73 45.38 ZM7.76 51.54 L2.8 54.12 C2.8 54.12 3.87 51.75 3.93 51.61 C3.77 51.61 2.42 51.58 2.17
							 51.57 C2.07 51.79 0.9 54.39 0.9 54.39 C0.9 54.39 0.06 56.27 0 56.41 C0.17 56.41 6.62 56.55 6.9 56.56
							 C6.98 56.39 7.39 55.47 7.44 55.36 C7.26 55.35 3.57 55.27 3.57 55.27 L7.51 53.23 C8.26 52.84 8.45 52.99
							 8.74 53.29 C8.74 53.29 10.13 54.78 10.22 54.88 C10.39 54.79 11.75 54.08 11.98 53.96 C11.67 53.64 9.76
							 51.6 9.76 51.6 C9.43 51.24 8.57 51.12 7.76 51.54 Z" class="st1"/>
			</g>
			<g id="shape14-18" v:mID="14" v:groupContext="shape" transform="translate(0,-27.2002)">
				<title>Лист.14</title>
				<path d="M0 40.12 L0 45.51 L0 45.51 C0.01 51.75 8.12 56.81 18.12 56.81 C28.12 56.81 36.23 51.75 36.24 45.51 L36.24
							 45.51 L36.24 40.12 L0 40.12 Z" class="st1"/>
			</g>
			<g id="shape15-20" v:mID="15" v:groupContext="shape" transform="translate(0,-32.5741)">
				<title>Лист.15</title>
				<path d="M36.24 45.5 C36.24 51.75 28.13 56.81 18.12 56.81 C8.11 56.81 0 51.75 0 45.5 C0 39.25 8.11 34.19 18.12 34.19
							 C28.13 34.19 36.24 39.25 36.24 45.5 Z" class="st2"/>
			</g>
			<g id="shape16-22" v:mID="16" v:groupContext="shape" transform="translate(0.147118,-32.462)">
				<title>Лист.16</title>
				<path d="M0 45.39 C-0 51.69 8.06 56.81 17.97 56.81 C27.88 56.81 35.95 51.69 35.95 45.39 C35.95 39.09 27.88 33.96
							 17.97 33.96 C8.06 33.96 0 39.09 0 45.39 ZM1.08 45.39 C1.08 39.68 8.66 35.04 17.97 35.04 C27.29 35.04
							 34.86 39.68 34.86 45.39 C34.86 51.09 27.29 55.73 17.97 55.73 C8.66 55.73 1.08 51.09 1.08 45.39 Z"
						class="st3"/>
			</g>
			<g id="shape17-24" v:mID="17" v:groupContext="shape" transform="translate(1.25683,-40.0782)">
				<title>Лист.17</title>
				<path d="M0.22 53.45 C0.22 47.75 7.8 43.11 17.11 43.11 C24.45 43.11 30.7 45.98 33.03 49.99 C30.9 45.75 24.47 42.67
							 16.89 42.67 C7.58 42.67 0 47.33 0 53.06 C0 54.38 0.41 55.65 1.15 56.81 C0.55 55.76 0.22 54.63 0.22 53.45
							 Z" class="st4"/>
			</g>
			<g id="shape18-26" v:mID="18" v:groupContext="shape" transform="translate(5.24511,-14.7595)">
				<title>Лист.18</title>
				<path d="M0 53.07 C3.55 55.11 5.56 55.75 9.56 56.25 C12.14 54.01 13.46 52.73 16.04 49.85 C20.11 49.36 22.15 48.72
							 25.75 46.64 L25.75 46.64 C25.75 46.85 25.75 46.96 25.75 47.17 C22.24 49.19 20.26 49.82 16.31 50.34 C13.73
							 53.25 12.42 54.54 9.84 56.81 C5.72 56.34 3.65 55.69 0 53.59 L0 53.07 Z" class="st5"/>
			</g>
			<g id="shape19-28" v:mID="19" v:groupContext="shape" transform="translate(3.87162,-17.045)">
				<title>Лист.19</title>
				<path d="M0.89 54.92 C1.23 54.93 1.45 54.88 1.72 54.82 L1.72 56.81 C1.63 56.67 1.23 56.14 0.89 55.74 C0.53 55.31
							 0 54.77 0 54.77 C0 54.76 0.53 54.92 0.89 54.92 Z" class="st5"/>
			</g>
			<g id="shape20-30" v:mID="20" v:groupContext="shape" transform="translate(30.6454,-23.4734)">
				<title>Лист.20</title>
				<path d="M0.84 55.74 C0.5 56.14 0.28 56.45 0 56.81 C0 56.02 0 55.62 0 54.82 C0.1 54.85 0.5 54.93 0.84 54.92 C1.2
							 54.92 1.72 54.77 1.72 54.77 C1.73 54.77 1.2 55.31 0.84 55.74 Z" class="st5"/>
			</g>
			<g id="shape21-32" v:mID="21" v:groupContext="shape" transform="translate(5.24626,-11.4689)">
				<title>Лист.21</title>
				<path d="M0 53.06 C3.55 55.11 5.56 55.75 9.56 56.25 C12.14 54.01 13.46 52.73 16.04 49.85 C20.1 49.36 22.14 48.71
							 25.75 46.64 C25.75 46.64 25.75 46.64 25.75 46.64 C25.75 46.85 25.75 46.96 25.75 47.17 C22.24 49.19 20.26
							 49.82 16.31 50.34 C13.73 53.25 12.41 54.54 9.84 56.81 C5.72 56.34 3.65 55.69 0 53.59 L0 53.06 Z"
						class="st5"/>
			</g>
			<g id="shape22-34" v:mID="22" v:groupContext="shape" transform="translate(3.87162,-13.7544)">
				<title>Лист.22</title>
				<path d="M0.89 54.92 C1.23 54.93 1.45 54.88 1.72 54.82 L1.72 56.81 C1.63 56.67 1.23 56.14 0.89 55.74 C0.53 55.31
							 0 54.77 0 54.77 C0 54.76 0.53 54.92 0.89 54.92 Z" class="st5"/>
			</g>
			<g id="shape23-36" v:mID="23" v:groupContext="shape" transform="translate(30.646,-20.1834)">
				<title>Лист.23</title>
				<path d="M0.84 55.74 C0.5 56.14 0.28 56.45 0 56.81 C0 56.02 0 55.62 0 54.82 C0.1 54.85 0.5 54.93 0.84 54.92 C1.2
							 54.92 1.72 54.77 1.72 54.77 C1.73 54.77 1.2 55.31 0.84 55.74 Z" class="st5"/>
			</g>
			<g id="shape24-38" v:mID="24" v:groupContext="shape" transform="translate(5.24569,-14.7584)">
				<title>Лист.24</title>
				<path d="M15.91 56.81 C13.33 54.54 12.02 53.25 9.44 50.34 C5.49 49.82 3.51 49.19 0 47.17 L0 46.64 C3.61 48.72 5.64
							 49.36 9.71 49.85 C12.29 52.73 13.61 54.01 16.19 56.25 C20.19 55.75 22.2 55.11 25.75 53.06 C25.75 53.28
							 25.75 53.38 25.75 53.59 C22.1 55.69 20.03 56.34 15.91 56.81 Z" class="st5"/>
			</g>
			<g id="shape25-40" v:mID="25" v:groupContext="shape" transform="translate(30.6454,-17.045)">
				<title>Лист.25</title>
				<path d="M0.84 54.92 C0.5 54.93 0.28 54.88 0 54.82 L0 56.81 C0.1 56.67 0.5 56.14 0.84 55.74 C1.2 55.31 1.72 54.77
							 1.72 54.77 C1.72 54.76 1.2 54.92 0.84 54.92 Z" class="st5"/>
			</g>
			<g id="shape26-42" v:mID="26" v:groupContext="shape" transform="translate(3.86933,-23.4728)">
				<title>Лист.26</title>
				<path d="M0.89 55.74 C1.23 56.14 1.45 56.45 1.73 56.81 L1.73 54.82 C1.63 54.85 1.23 54.93 0.89 54.92 C0.53 54.92
							 0 54.77 0 54.77 C0 54.77 0.53 55.31 0.89 55.74 Z" class="st5"/>
			</g>
			<g id="shape27-44" v:mID="27" v:groupContext="shape" transform="translate(5.24569,-11.4678)">
				<title>Лист.27</title>
				<path d="M15.91 56.81 C13.33 54.54 12.01 53.25 9.44 50.34 C5.49 49.82 3.51 49.19 0 47.17 L0 46.64 C3.6 48.71 5.64
							 49.35 9.71 49.85 C12.29 52.73 13.61 54.01 16.19 56.25 C20.19 55.75 22.2 55.11 25.75 53.06 L25.75 53.59
							 C22.1 55.69 20.03 56.34 15.91 56.81 Z" class="st5"/>
			</g>
			<g id="shape28-46" v:mID="28" v:groupContext="shape" transform="translate(30.6454,-13.7544)">
				<title>Лист.28</title>
				<path d="M0.84 54.92 C0.5 54.93 0.28 54.88 0 54.82 L0 56.81 C0.1 56.67 0.5 56.14 0.84 55.74 C1.2 55.31 1.72 54.77
							 1.72 54.77 C1.72 54.76 1.2 54.92 0.84 54.92 Z" class="st5"/>
			</g>
			<g id="shape29-48" v:mID="29" v:groupContext="shape" transform="translate(3.86933,-20.1834)">
				<title>Лист.29</title>
				<path d="M0.89 55.74 C1.23 56.14 1.45 56.45 1.73 56.81 L1.73 54.82 C1.63 54.85 1.23 54.93 0.89 54.92 C0.53 54.92
							 0 54.77 0 54.77 C0 54.77 0.53 55.31 0.89 55.74 Z" class="st5"/>
			</g>
			<g id="shape30-50" v:mID="30" v:groupContext="shape" transform="translate(6.02265,-37.0974)">
				<title>Лист.30</title>
				<path d="M18.94 51.94 C18.85 52.16 17.7 54.7 17.7 54.7 L15.68 52.54 C15.56 52.41 15.47 52.3 15.54 52.14 L15.57 52.1
							 C15.68 51.92 15.92 51.78 16.26 51.61 C16.26 51.61 18.73 50.32 18.99 50.18 C18.89 50.07 18.1 49.23 18.02
							 49.14 C17.42 49.45 13.74 51.36 13.74 51.36 C13.5 51.49 13.28 51.68 13.16 51.88 L13.11 51.98 C12.99 52.25
							 13.03 52.5 13.23 52.71 L15.71 55.36 L15.88 55.54 C15.88 55.54 12.45 55.47 12.17 55.46 C12.09 55.63 11.68
							 56.55 11.63 56.66 C11.81 56.67 18.25 56.81 18.53 56.81 C18.63 56.6 20.64 52.12 20.7 51.98 C20.54 51.98
							 19.15 51.95 18.94 51.94 ZM16.67 48.54 L21.63 45.96 C21.63 45.96 20.57 48.33 20.5 48.47 C20.67 48.47
							 22.02 48.5 22.26 48.51 C22.36 48.29 24.37 43.82 24.44 43.68 C24.27 43.67 17.82 43.53 17.53 43.52 C17.45
							 43.7 17.22 44.22 17.22 44.22 C17.22 44.22 17.04 44.61 16.99 44.72 C17.18 44.73 20.86 44.81 20.86 44.81
							 L16.92 46.85 C16.18 47.24 15.98 47.09 15.7 46.79 C15.7 46.79 14.31 45.31 14.21 45.21 C14.02 45.31 12.65
							 46.02 12.46 46.12 C12.76 46.44 14.68 48.49 14.68 48.49 C15.01 48.84 15.86 48.96 16.67 48.54 ZM6.73 45.38
							 L8.75 47.54 C8.88 47.67 8.96 47.78 8.89 47.94 L8.87 47.98 C8.76 48.17 8.51 48.3 8.18 48.48 C8.18 48.48
							 5.7 49.76 5.44 49.9 C5.53 50 6.33 50.85 6.42 50.94 C7.01 50.63 10.69 48.72 10.69 48.72 C10.94 48.59
							 11.15 48.4 11.27 48.2 L11.33 48.1 C11.45 47.84 11.4 47.58 11.21 47.37 L8.55 44.54 C8.55 44.54 11.99
							 44.61 12.27 44.62 C12.34 44.45 12.75 43.53 12.8 43.42 C12.62 43.41 6.18 43.27 5.9 43.27 C5.8 43.48 4.64
							 46.09 4.64 46.09 C4.64 46.09 3.79 47.96 3.73 48.1 C3.89 48.1 5.25 48.13 5.49 48.14 C5.59 47.92 6.73
							 45.38 6.73 45.38 ZM7.76 51.54 L2.8 54.12 C2.8 54.12 3.87 51.75 3.93 51.61 C3.77 51.61 2.42 51.58 2.17
							 51.57 C2.07 51.79 0.9 54.39 0.9 54.39 C0.9 54.39 0.06 56.27 0 56.41 C0.17 56.41 6.62 56.55 6.9 56.56
							 C6.98 56.39 7.39 55.47 7.44 55.36 C7.26 55.35 3.57 55.27 3.57 55.27 L7.51 53.23 C8.26 52.84 8.45 52.99
							 8.74 53.29 C8.74 53.29 10.13 54.78 10.22 54.88 C10.39 54.79 11.75 54.08 11.98 53.96 C11.67 53.64 9.76
							 51.6 9.76 51.6 C9.43 51.24 8.57 51.12 7.76 51.54 Z" class="st1"/>
			</g>
			<g id="shape31-52" v:mID="31" v:groupContext="shape" transform="translate(5.37097,-37.7491)">
				<title>Лист.31</title>
				<path d="M18.94 51.94 C18.85 52.16 17.71 54.7 17.71 54.7 L15.68 52.54 C15.56 52.41 15.47 52.3 15.55 52.14 L15.57
							 52.1 C15.68 51.92 15.92 51.78 16.26 51.61 C16.26 51.61 18.73 50.32 18.99 50.18 C18.89 50.07 18.1 49.23
							 18.02 49.14 C17.42 49.45 13.74 51.36 13.74 51.36 C13.5 51.49 13.28 51.68 13.16 51.88 L13.11 51.98 C12.99
							 52.25 13.03 52.5 13.23 52.71 L15.72 55.36 L15.88 55.54 C15.88 55.54 12.45 55.47 12.17 55.46 C12.09 55.63
							 11.68 56.55 11.63 56.66 C11.81 56.67 18.25 56.81 18.53 56.81 C18.63 56.6 20.64 52.12 20.71 51.98 C20.54
							 51.98 19.15 51.95 18.94 51.94 ZM16.67 48.54 L21.63 45.96 C21.63 45.96 20.57 48.33 20.5 48.47 C20.67
							 48.47 22.02 48.5 22.27 48.51 C22.36 48.29 24.37 43.82 24.44 43.68 C24.27 43.67 17.82 43.53 17.53 43.52
							 C17.45 43.7 17.22 44.22 17.22 44.22 C17.22 44.22 17.04 44.61 16.99 44.72 C17.18 44.73 20.86 44.81 20.86
							 44.81 L16.92 46.85 C16.18 47.24 15.98 47.09 15.7 46.79 C15.7 46.79 14.31 45.31 14.21 45.21 C14.02 45.31
							 12.65 46.02 12.46 46.12 C12.76 46.44 14.68 48.49 14.68 48.49 C15.01 48.84 15.86 48.96 16.67 48.54 ZM6.73
							 45.38 L8.75 47.54 C8.88 47.67 8.96 47.78 8.89 47.94 L8.87 47.98 C8.76 48.17 8.51 48.3 8.18 48.48 C8.18
							 48.48 5.71 49.76 5.44 49.9 C5.54 50 6.34 50.85 6.42 50.94 C7.01 50.63 10.69 48.72 10.69 48.72 C10.94
							 48.59 11.15 48.4 11.27 48.2 L11.33 48.1 C11.45 47.84 11.4 47.58 11.21 47.37 L8.55 44.54 C8.55 44.54
							 11.99 44.61 12.27 44.62 C12.34 44.45 12.75 43.53 12.81 43.42 C12.62 43.41 6.18 43.27 5.9 43.27 C5.8
							 43.48 4.64 46.09 4.64 46.09 C4.64 46.09 3.79 47.96 3.73 48.1 C3.89 48.1 5.25 48.13 5.49 48.14 C5.59
							 47.92 6.73 45.38 6.73 45.38 ZM7.76 51.54 L2.8 54.12 C2.8 54.12 3.87 51.75 3.93 51.61 C3.77 51.61 2.42
							 51.58 2.17 51.57 C2.07 51.79 0.9 54.39 0.9 54.39 C0.9 54.39 0.06 56.27 0 56.41 C0.17 56.41 6.62 56.55
							 6.9 56.56 C6.98 56.39 7.39 55.47 7.44 55.36 C7.26 55.35 3.57 55.27 3.57 55.27 L7.51 53.23 C8.26 52.84
							 8.45 52.99 8.74 53.29 C8.74 53.29 10.13 54.78 10.22 54.88 C10.39 54.79 11.75 54.08 11.98 53.96 C11.67
							 53.64 9.76 51.6 9.76 51.6 C9.43 51.24 8.57 51.12 7.76 51.54 Z" class="st5"/>
			</g>
		</g>
	</g>
</svg>
