<svg height="64" viewBox="0 0 64 64" width="64" xmlns="http://www.w3.org/2000/svg"><g fill="#e12229" transform="matrix(1.8315443 0 0 1.8315443 -8.18205 -27.506268)"><path d="m19.512357 39.862275a.10838.10838 0 0 0 .02887-.12831 79.77283 79.77283 0 0 0 -9.72271-15.77147s-3.05593 2.89874-2.8378 5.805a5.13415 5.13415 0 0 0 1.77068 3.49966c2.66458 2.59721 9.11645 5.87554 10.61661 6.6176a.11882.11882 0 0 0 .14435-.02245"/><path d="m18.514747 42.085255a.14526.14526 0 0 0 -.13793-.09837v-.0021l-10.74174.3742c1.16442 2.07756 3.12649 3.69 5.1709 3.196 1.41034-.35286 4.60634-2.58118 5.65848-3.33393l-.0011-.0043c.08019-.07271.05133-.13152.05133-.13152"/><path d="m18.677267 41.118675c.05133-.08447-.04063-.15718-.04063-.15718l.0011-.0043c-4.71757-3.18104-13.86182-8.06752-13.86182-8.06752a6.35708 6.35708 0 0 0 3.6793 7.8558 6.53493 6.53493 0 0 0 2.054.45229c.16146.02994 6.38878.0032 8.05681-.0043a.14475.14475 0 0 0 .1112-.07485"/><path d="m19.390457 19.323005c-.46833.04063-1.73005.32826-1.73005.32826a4.98364 4.98364 0 0 0 -3.51677 3.31682 6.56117 6.56117 0 0 0 .015 3.40664c.94843 4.21178 5.62106 11.13412 6.62295 12.58617.07164.07164.12938.04491.12938.04491a.13036.13036 0 0 0 .09944-.13366h.0021c1.54404-15.45284-1.62202-19.54914-1.62202-19.54914"/><path d="m22.945727 39.001535a.12261.12261 0 0 0 .155-.05774h.0011c1.03183-1.49161 5.67452-8.37545 6.61867-12.56906a7.11005 7.11005 0 0 0 .01815-3.40664 4.98584 4.98584 0 0 0 -3.54987-3.31575s-.82119-.20744-1.69156-.32933c0 0-3.18423 4.09845-1.636 19.5609h.0021a.12745.12745 0 0 0 .08232.11762"/><path d="m25.488407 41.995425s-.09409.01283-.12083.08126a.15491.15491 0 0 0 .0417.14649h-.0011c1.02755.73778 4.14442 2.918 5.64779 3.34034 0 0 2.77685.94522 5.18908-3.19707l-10.75561-.3753z"/><path d="m39.105337 32.867225s-9.13248 4.89931-13.8543 8.08569h.001a.14465.14465 0 0 0 -.05453.15718s.04491.08019.1112.08019v.0021c1.68942.0021 8.08783.0075 8.24927-.02138a6.42292 6.42292 0 0 0 1.84981-.42663 6.30123 6.30123 0 0 0 3.458-3.3072 6.49181 6.49181 0 0 0 .23952-4.57"/><path d="m24.389217 39.862275a.13666.13666 0 0 0 .14541.01069v.0021c1.53865-.76772 7.94241-4.02359 10.59414-6.608a5.18 5.18 0 0 0 1.76961-3.5157c.19354-3.00781-2.83458-5.79-2.83458-5.79a79.71566 79.71566 0 0 0 -9.70667 15.72981h.0032a.14809.14809 0 0 0 .02887.17108"/></g></svg>